<svg width="34" height="25" viewBox="0 0 34 25" fill="none" xmlns="http://www.w3.org/2000/svg">
<rect x="0.625" y="0.875" width="33" height="23.0735" rx="3.59559" fill="#1A1A1A" stroke="#333333" stroke-width="0.75"/>
<path fill-rule="evenodd" clip-rule="evenodd" d="M9.62898 8.78152C9.34569 9.13083 8.89244 9.40635 8.43918 9.36699C8.38253 8.89468 8.60443 8.39286 8.86411 8.0829C9.14739 7.72375 9.64314 7.46792 10.0445 7.44824C10.0917 7.94023 9.90754 8.42237 9.62898 8.78152ZM10.0401 9.46045C9.6408 9.4365 9.27645 9.58558 8.98215 9.706L8.98215 9.706C8.79276 9.7835 8.63239 9.84912 8.51038 9.84912C8.37345 9.84912 8.20646 9.77999 8.01896 9.70237C7.77327 9.60066 7.49238 9.48439 7.19783 9.48997C6.52267 9.49981 5.89472 9.89832 5.55006 10.533C4.84185 11.8023 5.36593 13.6817 6.05053 14.7149C6.38575 15.2265 6.78707 15.7874 7.31586 15.7677C7.5485 15.7586 7.71585 15.6846 7.88904 15.608C8.08842 15.5198 8.29555 15.4282 8.61897 15.4282C8.93117 15.4282 9.12924 15.5174 9.31938 15.6031C9.50017 15.6845 9.67378 15.7627 9.93152 15.7579C10.4792 15.748 10.8239 15.2462 11.1591 14.7345C11.5208 14.1854 11.6798 13.6494 11.7039 13.5681L11.7068 13.5587C11.7062 13.5581 11.7017 13.556 11.6938 13.5522C11.5729 13.4945 10.6486 13.0536 10.6397 11.8712C10.6308 10.8787 11.3729 10.3759 11.4897 10.2967C11.4968 10.2919 11.5016 10.2887 11.5037 10.287C11.0316 9.55885 10.2951 9.48013 10.0401 9.46045ZM13.8317 15.7037V8.03369H16.5937C18.0195 8.03369 19.0158 9.05702 19.0158 10.5527C19.0158 12.0483 18.0007 13.0815 16.5559 13.0815H14.9742V15.7037H13.8317ZM14.9736 9.03736H16.2909C17.2824 9.03736 17.8489 9.58839 17.8489 10.5576C17.8489 11.5268 17.2824 12.0828 16.2861 12.0828H14.9736V9.03736ZM22.7881 14.7837C22.4859 15.384 21.8202 15.7628 21.1026 15.7628C20.0402 15.7628 19.299 15.1035 19.299 14.1097C19.299 13.1258 20.0166 12.56 21.3433 12.4763L22.7692 12.3878V11.9647C22.7692 11.3398 22.3773 11.0004 21.6786 11.0004C21.1026 11.0004 20.6823 11.3103 20.5974 11.7826H19.5681C19.6011 10.7888 20.4982 10.0656 21.7116 10.0656C23.0194 10.0656 23.8693 10.779 23.8693 11.8859V15.7038H22.8117V14.7837H22.7881ZM21.409 14.8526C20.8 14.8526 20.4128 14.5476 20.4128 14.0802C20.4128 13.5981 20.7858 13.3176 21.4987 13.2733L22.7688 13.1897V13.6227C22.7688 14.341 22.1833 14.8526 21.409 14.8526ZM27.3768 16.0039C26.9188 17.347 26.3948 17.7898 25.2805 17.7898C25.1955 17.7898 24.9122 17.7799 24.8461 17.7603V16.8402C24.917 16.8501 25.0917 16.8599 25.1814 16.8599C25.6865 16.8599 25.9698 16.6385 26.1445 16.0629L26.2484 15.7234L24.3126 10.1394H25.5071L26.8527 14.6706H26.8763L28.2219 10.1394H29.3834L27.3768 16.0039Z" fill="white"/>
</svg>
