<svg width="35" height="25" viewBox="0 0 35 25" fill="none" xmlns="http://www.w3.org/2000/svg">
<rect x="1.125" y="0.875" width="33" height="23.0735" rx="3.59559" fill="#1A1A1A" stroke="#333333" stroke-width="0.75"/>
<path d="M14.8965 23.5075L33.7568 17.7998V20.5296C33.7568 22.1743 32.4235 23.5075 30.7788 23.5075H14.8965Z" fill="#FD6020"/>
<path fill-rule="evenodd" clip-rule="evenodd" d="M29.9281 9.54449C30.9657 9.54449 31.5364 10.0245 31.5364 10.9311C31.5882 11.6244 31.1213 12.2111 30.4988 12.3178L31.8995 14.291H30.81L29.6168 12.3711H29.513V14.291H28.6311V9.54449H29.9281ZM29.5132 11.7309H29.7726C30.3433 11.7309 30.6027 11.4642 30.6027 10.9842C30.6027 10.5576 30.3433 10.2909 29.7726 10.2909H29.5132V11.7309ZM25.5693 14.2906H28.0595V13.4907H26.4512V12.2107H28.0076V11.4107H26.4512V10.3441H28.0595V9.5441H25.5693V14.2906V14.2906ZM22.9755 12.744L21.7822 9.5441H20.8484L22.7679 14.3973H23.2349L25.1544 9.5441H24.2206L22.9755 12.744V12.744ZM12.4438 11.9433C12.4438 13.2766 13.4814 14.3966 14.7784 14.3966C15.1935 14.3966 15.5566 14.2899 15.9198 14.1299V13.0633C15.6604 13.3833 15.2972 13.5966 14.8822 13.5966C14.0521 13.5966 13.3777 12.9566 13.3777 12.1033V11.9967C13.3258 11.1433 14.0002 10.3967 14.8303 10.3434C15.2454 10.3434 15.6604 10.5567 15.9198 10.8767V9.81005C15.6085 9.59672 15.1935 9.54339 14.8303 9.54339C13.4814 9.43672 12.4438 10.5567 12.4438 11.9433V11.9433ZM10.8343 11.3569C10.3155 11.1436 10.1599 11.0369 10.1599 10.7703C10.2117 10.4503 10.4711 10.1836 10.7824 10.2369C11.0418 10.2369 11.3012 10.3969 11.5088 10.6103L11.9757 9.97028C11.6125 9.65029 11.1456 9.43696 10.6787 9.43696C9.95234 9.38363 9.32977 9.97028 9.27789 10.7169V10.7703C9.27789 11.4102 9.53729 11.7836 10.3674 12.0502C10.5749 12.1036 10.7824 12.2102 10.9899 12.3169C11.1456 12.4235 11.2493 12.5835 11.2493 12.7969C11.2493 13.1702 10.9381 13.4902 10.6268 13.4902H10.5749C10.1599 13.4902 9.7967 13.2235 9.64105 12.8502L9.07037 13.4369C9.38165 14.0235 10.0042 14.3435 10.6268 14.3435C11.4569 14.3968 12.1313 13.7568 12.1832 12.9035V12.7435C12.1313 12.1036 11.8719 11.7836 10.8343 11.3569V11.3569ZM7.82568 14.2906H8.70765V9.5441H7.82568V14.2906V14.2906ZM3.72656 9.54449H5.02357H5.28298C6.52811 9.59782 7.51383 10.6645 7.46195 11.9444C7.46195 12.6377 7.15067 13.2777 6.63187 13.7577C6.16494 14.131 5.59426 14.3444 5.02357 14.291H3.72656V9.54449ZM4.8681 13.4913C5.28315 13.5447 5.75007 13.3847 6.06135 13.118C6.37263 12.798 6.52828 12.3714 6.52828 11.8914C6.52828 11.4647 6.37263 11.0381 6.06135 10.7181C5.75007 10.4514 5.28315 10.2914 4.8681 10.3448H4.6087V13.4913H4.8681Z" fill="white"/>
<path fill-rule="evenodd" clip-rule="evenodd" d="M18.5642 9.43359C17.2672 9.43359 16.1777 10.5002 16.1777 11.8869C16.1777 13.2202 17.2153 14.3401 18.5642 14.3935C19.9131 14.4468 20.9507 13.3268 21.0026 11.9402C20.9507 10.5536 19.9131 9.43359 18.5642 9.43359V9.43359Z" fill="#FD6020"/>
</svg>
