<svg width="35" height="25" viewBox="0 0 35 25" fill="none" xmlns="http://www.w3.org/2000/svg">
<rect x="0.875" y="0.875" width="33" height="23.0735" rx="3.59559" fill="#1A1A1A" stroke="#333333" stroke-width="0.75"/>
<path fill-rule="evenodd" clip-rule="evenodd" d="M17.5519 17.2058C16.3766 18.1965 14.8519 18.7946 13.1859 18.7946C9.46857 18.7946 6.45508 15.817 6.45508 12.1439C6.45508 8.4708 9.46857 5.49316 13.1859 5.49316C14.8519 5.49316 16.3766 6.09125 17.5519 7.08199C18.7273 6.09126 20.2519 5.49317 21.9179 5.49317C25.6353 5.49317 28.6488 8.4708 28.6488 12.1439C28.6488 15.817 25.6353 18.7946 21.9179 18.7946C20.2519 18.7946 18.7273 18.1965 17.5519 17.2058Z" fill="#ED0006"/>
<path fill-rule="evenodd" clip-rule="evenodd" d="M17.5508 17.2061C18.9982 15.9863 19.916 14.171 19.916 12.1439C19.916 10.1168 18.9982 8.30152 17.5508 7.08165C18.7261 6.09112 20.2506 5.49316 21.9164 5.49316C25.6337 5.49316 28.6472 8.4708 28.6472 12.1439C28.6472 15.817 25.6337 18.7946 21.9164 18.7946C20.2506 18.7946 18.7261 18.1967 17.5508 17.2061Z" fill="#F9A000"/>
<path fill-rule="evenodd" clip-rule="evenodd" d="M17.5522 17.2057C18.9994 15.9858 19.917 14.1707 19.917 12.1439C19.917 10.117 18.9994 8.3019 17.5522 7.08203C16.1051 8.3019 15.1875 10.117 15.1875 12.1439C15.1875 14.1707 16.1051 15.9858 17.5522 17.2057Z" fill="#FF5E00"/>
</svg>
