<svg width="49" height="25" viewBox="0 0 49 25" fill="none" xmlns="http://www.w3.org/2000/svg">
<rect x="0.625" y="0.875" width="48" height="23.25" rx="3.59559" fill="#1A1A1A" stroke="#333333" stroke-width="0.75"/>
<g clip-path="url(#clip0_254_18876)">
<rect width="8.25" height="8.25" transform="translate(4 3.5)" fill="#1A1A1A"/>
<path d="M10.5293 7.28125H5.7168C5.3371 7.28125 5.0293 7.58905 5.0293 7.96875V10.375C5.0293 10.7547 5.3371 11.0625 5.7168 11.0625H10.5293C10.909 11.0625 11.2168 10.7547 11.2168 10.375V7.96875C11.2168 7.58905 10.909 7.28125 10.5293 7.28125Z" stroke="white" stroke-width="0.6875" stroke-linecap="round" stroke-linejoin="round"/>
<path d="M6.4043 7.28125V5.90625C6.4043 5.45041 6.58538 5.01324 6.90771 4.69091C7.23004 4.36858 7.66721 4.1875 8.12305 4.1875C8.57889 4.1875 9.01606 4.36858 9.33839 4.69091C9.66072 5.01324 9.8418 5.45041 9.8418 5.90625V7.28125" stroke="white" stroke-width="0.6875" stroke-linecap="round" stroke-linejoin="round"/>
</g>
<path d="M16.2065 10.5578C15.827 10.5578 15.486 10.4917 15.1835 10.3597C14.8865 10.2222 14.6528 10.0352 14.4823 9.79875C14.3118 9.55675 14.2238 9.279 14.2183 8.9655H15.0185C15.046 9.235 15.156 9.46325 15.3485 9.65025C15.5465 9.83175 15.8325 9.9225 16.2065 9.9225C16.564 9.9225 16.8445 9.8345 17.048 9.6585C17.257 9.477 17.3615 9.246 17.3615 8.9655C17.3615 8.7455 17.301 8.56675 17.18 8.42925C17.059 8.29175 16.9078 8.18725 16.7263 8.11575C16.5448 8.04425 16.3 7.96725 15.992 7.88475C15.6125 7.78575 15.3073 7.68675 15.0763 7.58775C14.8508 7.48875 14.6555 7.33475 14.4905 7.12575C14.331 6.91125 14.2513 6.62525 14.2513 6.26775C14.2513 5.95425 14.331 5.6765 14.4905 5.4345C14.65 5.1925 14.8728 5.0055 15.1588 4.8735C15.4503 4.7415 15.783 4.6755 16.157 4.6755C16.696 4.6755 17.136 4.81025 17.477 5.07975C17.8235 5.34925 18.0188 5.70675 18.0628 6.15225H17.2378C17.2103 5.93225 17.0948 5.73975 16.8913 5.57475C16.6878 5.40425 16.4183 5.319 16.0828 5.319C15.7693 5.319 15.5135 5.4015 15.3155 5.5665C15.1175 5.726 15.0185 5.9515 15.0185 6.243C15.0185 6.452 15.0763 6.6225 15.1918 6.7545C15.3128 6.8865 15.4585 6.98825 15.629 7.05975C15.805 7.12575 16.0498 7.20275 16.3633 7.29075C16.7428 7.39525 17.048 7.49975 17.279 7.60425C17.51 7.70325 17.708 7.86 17.873 8.0745C18.038 8.2835 18.1205 8.5695 18.1205 8.9325C18.1205 9.213 18.0463 9.477 17.8978 9.7245C17.7493 9.972 17.5293 10.1727 17.2378 10.3267C16.9463 10.4807 16.6025 10.5578 16.2065 10.5578ZM23.3503 8.06625C23.3503 8.20925 23.3421 8.3605 23.3256 8.52H19.7121C19.7396 8.9655 19.8908 9.31475 20.1658 9.56775C20.4463 9.81525 20.7846 9.939 21.1806 9.939C21.5051 9.939 21.7746 9.86475 21.9891 9.71625C22.2091 9.56225 22.3631 9.35875 22.4511 9.10575H23.2596C23.1386 9.54025 22.8966 9.895 22.5336 10.17C22.1706 10.4395 21.7196 10.5743 21.1806 10.5743C20.7516 10.5743 20.3666 10.478 20.0256 10.2855C19.6901 10.093 19.4261 9.82075 19.2336 9.46875C19.0411 9.11125 18.9448 8.69875 18.9448 8.23125C18.9448 7.76375 19.0383 7.354 19.2253 7.002C19.4123 6.65 19.6736 6.3805 20.0091 6.1935C20.3501 6.001 20.7406 5.90475 21.1806 5.90475C21.6096 5.90475 21.9891 5.99825 22.3191 6.18525C22.6491 6.37225 22.9021 6.63075 23.0781 6.96075C23.2596 7.28525 23.3503 7.65375 23.3503 8.06625ZM22.5748 7.9095C22.5748 7.6235 22.5116 7.37875 22.3851 7.17525C22.2586 6.96625 22.0853 6.8095 21.8653 6.705C21.6508 6.595 21.4116 6.54 21.1476 6.54C20.7681 6.54 20.4436 6.661 20.1741 6.903C19.9101 7.145 19.7588 7.4805 19.7203 7.9095H22.5748ZM24.0608 8.23125C24.0608 7.76375 24.1543 7.35675 24.3413 7.01025C24.5283 6.65825 24.7868 6.386 25.1168 6.1935C25.4523 6.001 25.8346 5.90475 26.2636 5.90475C26.8191 5.90475 27.2756 6.0395 27.6331 6.309C27.9961 6.5785 28.2353 6.9525 28.3508 7.431H27.5423C27.4653 7.156 27.3141 6.93875 27.0886 6.77925C26.8686 6.61975 26.5936 6.54 26.2636 6.54C25.8346 6.54 25.4881 6.6885 25.2241 6.9855C24.9601 7.277 24.8281 7.69225 24.8281 8.23125C24.8281 8.77575 24.9601 9.1965 25.2241 9.4935C25.4881 9.7905 25.8346 9.939 26.2636 9.939C26.5936 9.939 26.8686 9.862 27.0886 9.708C27.3086 9.554 27.4598 9.334 27.5423 9.048H28.3508C28.2298 9.51 27.9878 9.88125 27.6248 10.1617C27.2618 10.4367 26.8081 10.5743 26.2636 10.5743C25.8346 10.5743 25.4523 10.478 25.1168 10.2855C24.7868 10.093 24.5283 9.82075 24.3413 9.46875C24.1543 9.11675 24.0608 8.70425 24.0608 8.23125ZM33.362 5.979V10.5H32.6113V9.83175C32.4683 10.0627 32.2675 10.2442 32.009 10.3762C31.756 10.5028 31.4755 10.566 31.1675 10.566C30.8155 10.566 30.4993 10.4945 30.2188 10.3515C29.9383 10.203 29.7155 9.983 29.5505 9.6915C29.391 9.4 29.3113 9.04525 29.3113 8.62725V5.979H30.0538V8.52825C30.0538 8.97375 30.1665 9.3175 30.392 9.5595C30.6175 9.796 30.9255 9.91425 31.316 9.91425C31.7175 9.91425 32.0338 9.7905 32.2648 9.543C32.4958 9.2955 32.6113 8.93525 32.6113 8.46225V5.979H33.362ZM35.3804 6.71325C35.5124 6.45475 35.6994 6.254 35.9414 6.111C36.1889 5.968 36.4886 5.8965 36.8406 5.8965V6.672H36.6426C35.8011 6.672 35.3804 7.1285 35.3804 8.0415V10.5H34.6296V5.979H35.3804V6.71325ZM41.8323 8.06625C41.8323 8.20925 41.824 8.3605 41.8075 8.52H38.194C38.2215 8.9655 38.3728 9.31475 38.6478 9.56775C38.9283 9.81525 39.2665 9.939 39.6625 9.939C39.987 9.939 40.2565 9.86475 40.471 9.71625C40.691 9.56225 40.845 9.35875 40.933 9.10575H41.7415C41.6205 9.54025 41.3785 9.895 41.0155 10.17C40.6525 10.4395 40.2015 10.5743 39.6625 10.5743C39.2335 10.5743 38.8485 10.478 38.5075 10.2855C38.172 10.093 37.908 9.82075 37.7155 9.46875C37.523 9.11125 37.4268 8.69875 37.4268 8.23125C37.4268 7.76375 37.5203 7.354 37.7073 7.002C37.8943 6.65 38.1555 6.3805 38.491 6.1935C38.832 6.001 39.2225 5.90475 39.6625 5.90475C40.0915 5.90475 40.471 5.99825 40.801 6.18525C41.131 6.37225 41.384 6.63075 41.56 6.96075C41.7415 7.28525 41.8323 7.65375 41.8323 8.06625ZM41.0568 7.9095C41.0568 7.6235 40.9935 7.37875 40.867 7.17525C40.7405 6.96625 40.5673 6.8095 40.3473 6.705C40.1328 6.595 39.8935 6.54 39.6295 6.54C39.25 6.54 38.9255 6.661 38.656 6.903C38.392 7.145 38.2408 7.4805 38.2023 7.9095H41.0568Z" fill="white"/>
<path d="M9.10239 16.162C9.10239 16.498 9.02139 16.813 8.85939 17.107C8.70339 17.401 8.45439 17.638 8.11239 17.818C7.77639 17.998 7.35039 18.088 6.83439 18.088H5.78139V20.5H4.52139V14.218H6.83439C7.32039 14.218 7.73439 14.302 8.07639 14.47C8.41839 14.638 8.67339 14.869 8.84139 15.163C9.01539 15.457 9.10239 15.79 9.10239 16.162ZM6.78039 17.071C7.12839 17.071 7.38639 16.993 7.55439 16.837C7.72239 16.675 7.80639 16.45 7.80639 16.162C7.80639 15.55 7.46439 15.244 6.78039 15.244H5.78139V17.071H6.78039ZM9.67298 17.989C9.67298 17.485 9.77198 17.038 9.96998 16.648C10.174 16.258 10.447 15.958 10.789 15.748C11.137 15.538 11.524 15.433 11.95 15.433C12.322 15.433 12.646 15.508 12.922 15.658C13.204 15.808 13.429 15.997 13.597 16.225V15.514H14.866V20.5H13.597V19.771C13.435 20.005 13.21 20.2 12.922 20.356C12.64 20.506 12.313 20.581 11.941 20.581C11.521 20.581 11.137 20.473 10.789 20.257C10.447 20.041 10.174 19.738 9.96998 19.348C9.77198 18.952 9.67298 18.499 9.67298 17.989ZM13.597 18.007C13.597 17.701 13.537 17.44 13.417 17.224C13.297 17.002 13.135 16.834 12.931 16.72C12.727 16.6 12.508 16.54 12.274 16.54C12.04 16.54 11.824 16.597 11.626 16.711C11.428 16.825 11.266 16.993 11.14 17.215C11.02 17.431 10.96 17.689 10.96 17.989C10.96 18.289 11.02 18.553 11.14 18.781C11.266 19.003 11.428 19.174 11.626 19.294C11.83 19.414 12.046 19.474 12.274 19.474C12.508 19.474 12.727 19.417 12.931 19.303C13.135 19.183 13.297 19.015 13.417 18.799C13.537 18.577 13.597 18.313 13.597 18.007ZM20.8666 15.514L17.7796 22.858H16.4386L17.5186 20.374L15.5206 15.514H16.9336L18.2206 18.997L19.5256 15.514H20.8666ZM27.7378 15.442C28.3498 15.442 28.8418 15.631 29.2138 16.009C29.5918 16.381 29.7808 16.903 29.7808 17.575V20.5H28.5208V17.746C28.5208 17.356 28.4218 17.059 28.2238 16.855C28.0258 16.645 27.7558 16.54 27.4138 16.54C27.0718 16.54 26.7988 16.645 26.5948 16.855C26.3968 17.059 26.2978 17.356 26.2978 17.746V20.5H25.0378V17.746C25.0378 17.356 24.9388 17.059 24.7408 16.855C24.5428 16.645 24.2728 16.54 23.9308 16.54C23.5828 16.54 23.3068 16.645 23.1028 16.855C22.9048 17.059 22.8058 17.356 22.8058 17.746V20.5H21.5458V15.514H22.8058V16.117C22.9678 15.907 23.1748 15.742 23.4268 15.622C23.6848 15.502 23.9668 15.442 24.2728 15.442C24.6628 15.442 25.0108 15.526 25.3168 15.694C25.6228 15.856 25.8598 16.09 26.0278 16.396C26.1898 16.108 26.4238 15.877 26.7298 15.703C27.0418 15.529 27.3778 15.442 27.7378 15.442ZM35.6115 17.899C35.6115 18.079 35.5995 18.241 35.5755 18.385H31.9305C31.9605 18.745 32.0865 19.027 32.3085 19.231C32.5305 19.435 32.8035 19.537 33.1275 19.537C33.5955 19.537 33.9285 19.336 34.1265 18.934H35.4855C35.3415 19.414 35.0655 19.81 34.6575 20.122C34.2495 20.428 33.7485 20.581 33.1545 20.581C32.6745 20.581 32.2425 20.476 31.8585 20.266C31.4805 20.05 31.1835 19.747 30.9675 19.357C30.7575 18.967 30.6525 18.517 30.6525 18.007C30.6525 17.491 30.7575 17.038 30.9675 16.648C31.1775 16.258 31.4715 15.958 31.8495 15.748C32.2275 15.538 32.6625 15.433 33.1545 15.433C33.6285 15.433 34.0515 15.535 34.4235 15.739C34.8015 15.943 35.0925 16.234 35.2965 16.612C35.5065 16.984 35.6115 17.413 35.6115 17.899ZM34.3065 17.539C34.3005 17.215 34.1835 16.957 33.9555 16.765C33.7275 16.567 33.4485 16.468 33.1185 16.468C32.8065 16.468 32.5425 16.564 32.3265 16.756C32.1165 16.942 31.9875 17.203 31.9395 17.539H34.3065ZM39.2942 15.442C39.8882 15.442 40.3682 15.631 40.7342 16.009C41.1002 16.381 41.2832 16.903 41.2832 17.575V20.5H40.0232V17.746C40.0232 17.35 39.9242 17.047 39.7262 16.837C39.5282 16.621 39.2582 16.513 38.9162 16.513C38.5682 16.513 38.2922 16.621 38.0882 16.837C37.8902 17.047 37.7912 17.35 37.7912 17.746V20.5H36.5312V15.514H37.7912V16.135C37.9592 15.919 38.1722 15.751 38.4302 15.631C38.6942 15.505 38.9822 15.442 39.2942 15.442ZM43.9484 16.549V18.961C43.9484 19.129 43.9874 19.252 44.0654 19.33C44.1494 19.402 44.2874 19.438 44.4794 19.438H45.0644V20.5H44.2724C43.2104 20.5 42.6794 19.984 42.6794 18.952V16.549H42.0854V15.514H42.6794V14.281H43.9484V15.514H45.0644V16.549H43.9484Z" fill="white"/>
<defs>
<clipPath id="clip0_254_18876">
<rect width="8.25" height="8.25" fill="white" transform="translate(4 3.5)"/>
</clipPath>
</defs>
</svg>
