<svg width="34" height="25" viewBox="0 0 34 25" fill="none" xmlns="http://www.w3.org/2000/svg">
<rect x="0.375" y="0.875" width="33" height="23.0735" rx="3.59559" fill="#1A1A1A" stroke="#333333" stroke-width="0.75"/>
<path fill-rule="evenodd" clip-rule="evenodd" d="M10.6721 16.2412H8.62753L7.09433 10.2199C7.02156 9.9429 6.86704 9.69804 6.63975 9.58263C6.07253 9.2926 5.44749 9.06179 4.76562 8.94538V8.71356H8.05931C8.51388 8.71356 8.85482 9.06179 8.91164 9.46622L9.70715 13.8096L11.7507 8.71356H13.7385L10.6721 16.2412ZM14.8743 16.2412H12.9433L14.5334 8.71356H16.4643L14.8743 16.2412ZM18.964 10.799C19.0208 10.3936 19.3617 10.1618 19.7595 10.1618C20.3845 10.1036 21.0654 10.22 21.6336 10.509L21.9745 8.88827C21.4063 8.65645 20.7813 8.54004 20.214 8.54004C18.3399 8.54004 16.9762 9.58272 16.9762 11.0298C16.9762 12.1307 17.9422 12.7088 18.624 13.057C19.3617 13.4042 19.6458 13.636 19.589 13.9833C19.589 14.5041 19.0208 14.7359 18.4535 14.7359C17.7717 14.7359 17.0898 14.5623 16.4658 14.2723L16.1248 15.894C16.8067 16.183 17.5444 16.2995 18.2263 16.2995C20.3277 16.3567 21.6336 15.315 21.6336 13.7514C21.6336 11.7825 18.964 11.6671 18.964 10.799V10.799ZM28.3913 16.2412L26.8581 8.71356H25.2113C24.8703 8.71356 24.5294 8.94538 24.4158 9.2926L21.5766 16.2412H23.5644L23.9612 15.1413H26.4035L26.6308 16.2412H28.3913ZM25.494 10.7405L26.0612 13.5776H24.4712L25.494 10.7405Z" fill="white"/>
</svg>
