<svg width="48" height="48" viewBox="0 0 48 48" fill="none" xmlns="http://www.w3.org/2000/svg">
<path d="M16.973 8.91172C16.2118 8.15045 16.2118 6.91995 16.973 6.15868C17.7343 5.39741 18.9648 5.39741 19.7261 6.15868L22.2435 8.67613V2.83517C22.2435 1.76043 23.1158 0.888184 24.1905 0.888184C25.2653 0.888184 26.1375 1.76043 26.1375 2.83517V8.67613L28.655 6.15868C29.4163 5.39741 30.6467 5.39741 31.408 6.15868C32.1693 6.91995 32.1693 8.15045 31.408 8.91172L26.9436 13.3762C26.1842 14.1355 25.1874 14.5151 24.1905 14.5151C23.1937 14.5151 22.1968 14.1355 21.4375 13.3762L16.973 8.91172ZM45.6074 43.7219H41.7134V20.3581H42.282C44.2737 20.3581 46.0786 19.2775 46.9878 17.5388C47.8406 15.9092 47.7296 14.0401 46.6899 12.5428C45.8177 11.287 44.6962 10.2785 43.4365 9.62432L35.5142 5.52591C36.2677 7.59361 35.818 10.0079 34.1611 11.6648L29.6966 16.1292C28.2286 17.5992 26.2719 18.4091 24.1905 18.4091C22.1092 18.4091 20.1505 17.5992 18.6825 16.1292L14.22 11.6667C12.5631 10.0098 12.1134 7.5975 12.8668 5.52785L4.9387 9.62821C3.68678 10.2804 2.56337 11.289 1.69112 12.5448C0.651425 14.042 0.540446 15.9092 1.39323 17.5388C2.30247 19.2794 4.10733 20.3581 6.10105 20.3581H6.66957V43.7219H2.77364C1.69891 43.7219 0.826654 44.5942 0.826654 45.6689C0.826654 46.7436 1.69891 47.6159 2.77364 47.6159H14.4556C15.5303 47.6159 16.4026 46.7436 16.4026 45.6689C16.4026 44.5942 15.5303 43.7219 14.4556 43.7219H10.5616V20.3581H22.2435V24.252C19.0232 24.252 16.4026 26.8727 16.4026 30.093C16.4026 32.7409 18.2989 34.9799 20.9099 35.4141L26.8326 36.4012C27.5588 36.5219 28.0865 37.145 28.0865 37.8809C28.0865 38.9537 27.2142 39.8279 26.1395 39.8279H21.7237C21.0306 39.8279 20.3842 39.4541 20.0357 38.8544C19.4963 37.9238 18.3048 37.6045 17.3761 38.1438C16.4435 38.6831 16.1261 39.8727 16.6654 40.8034C17.7071 42.6043 19.6443 43.7219 21.7237 43.7219H22.2455V45.6689C22.2455 46.7436 23.1177 47.6159 24.1925 47.6159C25.2672 47.6159 26.1395 46.7436 26.1395 45.6689V43.7219C29.3598 43.7219 31.9804 41.1013 31.9804 37.8809C31.9804 35.233 30.0841 32.994 27.4732 32.5598L21.5524 31.5727C20.8261 31.452 20.2985 30.829 20.2985 30.093C20.2985 29.0202 21.1727 28.146 22.2455 28.146H26.6613C27.3544 28.146 28.0008 28.5198 28.3493 29.1195C28.8828 30.0521 30.0743 30.3675 31.0089 29.8301C31.9395 29.2908 32.2589 28.1012 31.7176 27.1706C30.6779 25.3696 28.7387 24.2501 26.6593 24.2501H26.1375V20.3561H37.8195V43.72H33.9255C32.8488 43.72 31.9785 44.5922 31.9785 45.6669C31.9785 46.7417 32.8488 47.6139 33.9255 47.6139H45.6074C46.6841 47.6139 47.5544 46.7417 47.5544 45.6669C47.5544 44.5922 46.6841 43.7219 45.6074 43.7219Z" fill="#40C545"/>
</svg>
